<svg xmlns="http://www.w3.org/2000/svg" xmlns:xlink="http://www.w3.org/1999/xlink" xmlns:serif="http://www.serif.com/" viewBox="0 0 48 48" version="1.1" xml:space="preserve" style="fill:#000000" x="0px" y="0px" fill-rule="evenodd" clip-rule="evenodd" stroke-linejoin="round" stroke-miterlimit="2"><path d="M4,12c-0.552,0 -1,0.448 -1,1c0,0.552 0.448,1 1,1l12,0c0.552,0 1,-0.448 1,-1c0,-0.552 -0.448,-1 -1,-1l-12,0Zm16,0c-0.552,0 -1,0.448 -1,1c0,0.552 0.448,1 1,1l4,0c0.552,0 1,-0.448 1,-1c0,-0.552 -0.448,-1 -1,-1l-4,0Zm11.127,1.008c-0.185,-0.024 -0.375,0.004 -0.551,0.086c-0.352,0.165 -0.576,0.518 -0.576,0.906l-0,6l-25,0c-0.552,0 -1,0.448 -1,1c-0,0.552 0.448,1 1,1l26,0c0.552,0 1,-0.448 1,-1l0,-4.865l9.438,7.865l-9.438,7.865l0,-4.865c0,-0.552 -0.448,-1 -1,-1l-26,0c-0.552,0 -1,0.448 -1,1c0,0.552 0.448,1 1,1l25,0l0,6c0,0.388 0.224,0.741 0.576,0.906c0.351,0.164 0.767,0.111 1.065,-0.138l12,-10c0.228,-0.19 0.359,-0.471 0.359,-0.768c-0,-0.297 -0.131,-0.578 -0.359,-0.768l-12,-10c-0.149,-0.124 -0.329,-0.2 -0.514,-0.224Zm-24.127,2.992c-0.552,0 -1,0.448 -1,1c-0,0.552 0.448,1 1,1l2,0c0.552,0 1,-0.448 1,-1c-0,-0.552 -0.448,-1 -1,-1l-2,0Zm6,0c-0.552,0 -1,0.448 -1,1c-0,0.552 0.448,1 1,1l6,0c0.552,0 1,-0.448 1,-1c-0,-0.552 -0.448,-1 -1,-1l-6,0Zm10,0c-0.552,0 -1,0.448 -1,1c-0,0.552 0.448,1 1,1l4,0c0.552,0 1,-0.448 1,-1c-0,-0.552 -0.448,-1 -1,-1l-4,0Zm-16,14c-0.552,0 -1,0.448 -1,1c-0,0.552 0.448,1 1,1l2,0c0.552,0 1,-0.448 1,-1c-0,-0.552 -0.448,-1 -1,-1l-2,0Zm6,0c-0.552,0 -1,0.448 -1,1c-0,0.552 0.448,1 1,1l6,0c0.552,0 1,-0.448 1,-1c-0,-0.552 -0.448,-1 -1,-1l-6,0Zm10,0c-0.552,0 -1,0.448 -1,1c-0,0.552 0.448,1 1,1l4,0c0.552,0 1,-0.448 1,-1c-0,-0.552 -0.448,-1 -1,-1l-4,0Zm-19,4c-0.552,0 -1,0.448 -1,1c-0,0.552 0.448,1 1,1l12,0c0.552,0 1,-0.448 1,-1c-0,-0.552 -0.448,-1 -1,-1l-12,0Zm16,0c-0.552,0 -1,0.448 -1,1c-0,0.552 0.448,1 1,1l4,0c0.552,0 1,-0.448 1,-1c-0,-0.552 -0.448,-1 -1,-1l-4,0Z"/></svg>